<svg width="111" height="42" viewBox="0 0 111 42" fill="none" xmlns="http://www.w3.org/2000/svg">
<path d="M0 5C0 2.23858 2.23858 0 5 0H106C108.761 0 111 2.23858 111 5V37C111 39.7614 108.761 42 106 42H5C2.23857 42 0 39.7614 0 37V5Z" fill="#2D9CDB"/>
<path d="M12.5024 26.9799V13.0199C14.5824 12.9666 15.8624 12.9399 16.3424 12.9399C17.9158 12.9399 19.0558 13.2533 19.7624 13.8799C20.4824 14.5066 20.8424 15.3466 20.8424 16.3999C20.8424 17.2399 20.6224 17.9333 20.1824 18.4799C19.7424 19.0133 19.1624 19.3999 18.4424 19.6399V19.6799C19.3358 19.8266 20.0424 20.1866 20.5624 20.7599C21.0824 21.3199 21.3424 22.0666 21.3424 22.9999C21.3424 24.3599 20.8758 25.3799 19.9424 26.0599C19.0224 26.7266 17.7958 27.0599 16.2624 27.0599C14.8491 27.0599 13.5958 27.0333 12.5024 26.9799ZM16.4624 20.6199H14.2024V25.3799C14.8158 25.4333 15.5358 25.4599 16.3624 25.4599C17.4158 25.4599 18.2224 25.2466 18.7824 24.8199C19.3558 24.3799 19.6424 23.7399 19.6424 22.8999C19.6424 22.1666 19.3624 21.6066 18.8024 21.2199C18.2558 20.8199 17.4758 20.6199 16.4624 20.6199ZM16.3024 14.5399C15.9024 14.5399 15.2024 14.5599 14.2024 14.5999V19.1199H16.4424C17.2158 19.1199 17.8558 18.9133 18.3624 18.4999C18.8824 18.0866 19.1424 17.5133 19.1424 16.7799C19.1424 15.2866 18.1958 14.5399 16.3024 14.5399Z" fill="white"/>
<path d="M36.5584 17.9999L32.6184 22.2999L36.9384 26.9999H34.7184L30.6584 22.3999L34.4584 17.9999H36.5584ZM28.6784 26.9999V17.9999H30.2784V26.9999H28.6784Z" fill="white"/>
<path d="M38.871 25.8799C37.991 24.9866 37.551 23.8599 37.551 22.4999C37.551 21.1399 37.991 20.0199 38.871 19.1399C39.7644 18.2466 40.9244 17.7999 42.351 17.7999C43.7777 17.7999 44.931 18.2466 45.811 19.1399C46.7044 20.0199 47.151 21.1399 47.151 22.4999C47.151 23.8599 46.7044 24.9866 45.811 25.8799C44.931 26.7599 43.7777 27.1999 42.351 27.1999C40.9244 27.1999 39.7644 26.7599 38.871 25.8799ZM39.251 22.4999C39.251 23.4333 39.5377 24.1999 40.111 24.7999C40.6977 25.3999 41.4444 25.6999 42.351 25.6999C43.2577 25.6999 43.9977 25.4066 44.571 24.8199C45.1577 24.2199 45.451 23.4466 45.451 22.4999C45.451 21.5666 45.1577 20.7999 44.571 20.1999C43.9977 19.5999 43.2577 19.2999 42.351 19.2999C41.4577 19.2999 40.7177 19.5999 40.131 20.1999C39.5444 20.7866 39.251 21.5533 39.251 22.4999Z" fill="white"/>
<path d="M49.4596 30.9999V17.9999H51.0596V19.0599C51.3796 18.6866 51.813 18.3866 52.3596 18.1599C52.9196 17.9199 53.5063 17.7999 54.1196 17.7999C55.3863 17.7999 56.393 18.2266 57.1396 19.0799C57.8996 19.9199 58.2796 21.0133 58.2796 22.3599C58.2796 23.7466 57.8463 24.8999 56.9796 25.8199C56.113 26.7399 54.9863 27.1999 53.5996 27.1999C52.533 27.1999 51.6863 26.9933 51.0596 26.5799V30.9999H49.4596ZM53.6596 19.2999C52.593 19.2999 51.7263 19.7133 51.0596 20.5399V24.9999C51.753 25.4666 52.553 25.6999 53.4596 25.6999C54.4063 25.6999 55.1596 25.3933 55.7196 24.7799C56.293 24.1666 56.5796 23.3799 56.5796 22.4199C56.5796 21.4866 56.3196 20.7333 55.7996 20.1599C55.2796 19.5866 54.5663 19.2999 53.6596 19.2999Z" fill="white"/>
<path d="M63.5529 27.1999C62.8596 27.1999 62.1396 27.0866 61.3929 26.8599C60.6462 26.6199 60.1262 26.3266 59.8329 25.9799L60.6529 24.7799C61.0129 25.0733 61.4396 25.3133 61.9329 25.4999C62.4396 25.6733 62.8996 25.7599 63.3129 25.7599C64.0062 25.7599 64.5729 25.6266 65.0129 25.3599C65.4529 25.0799 65.6729 24.7199 65.6729 24.2799C65.6729 23.9066 65.5129 23.6199 65.1929 23.4199C64.8862 23.2199 64.4596 23.1199 63.9129 23.1199H62.3929V21.8199H63.8129C64.2662 21.8199 64.6396 21.6999 64.9329 21.4599C65.2262 21.2066 65.3729 20.8999 65.3729 20.5399C65.3729 20.1399 65.1996 19.8266 64.8529 19.5999C64.5062 19.3599 64.0396 19.2399 63.4529 19.2399C62.4929 19.2399 61.5929 19.5733 60.7529 20.2399L60.1329 18.9999C60.4929 18.6266 60.9929 18.3333 61.6329 18.1199C62.2862 17.9066 62.9729 17.7999 63.6929 17.7999C64.7729 17.7999 65.6062 18.0199 66.1929 18.4599C66.7796 18.8866 67.0729 19.4733 67.0729 20.2199C67.0729 21.2599 66.5462 21.9666 65.4929 22.3399V22.3799C66.0929 22.4466 66.5529 22.6799 66.8729 23.0799C67.2062 23.4799 67.3729 23.9533 67.3729 24.4999C67.3729 25.3266 67.0196 25.9866 66.3129 26.4799C65.6062 26.9599 64.6862 27.1999 63.5529 27.1999Z" fill="white"/>
<path d="M71.4112 26.9999H69.8112V17.9999H71.4112V24.6999L76.6112 17.9999H78.2112V26.9999H76.6112V20.2999L71.4112 26.9999Z" fill="white"/>
<path d="M87.7198 26.9999V23.1999H82.7198V26.9999H81.1198V17.9999H82.7198V21.6999H87.7198V17.9999H89.3198V26.9999H87.7198Z" fill="white"/>
<path d="M100.394 17.9999L96.7935 26.9999C96.1535 28.5599 95.5869 29.6133 95.0935 30.1599C94.6002 30.7199 94.0202 30.9999 93.3535 30.9999C92.7802 30.9999 92.2135 30.8133 91.6535 30.4399L92.1735 29.2199C92.6002 29.4199 92.9335 29.5199 93.1735 29.5199C93.5469 29.5199 93.8802 29.3599 94.1735 29.0399C94.4802 28.7199 94.7869 28.1999 95.0935 27.4799L95.2935 26.9999L90.9735 17.9999H92.8935L95.5335 23.7199C95.5869 23.8399 95.7669 24.2933 96.0735 25.0799C96.1935 24.6399 96.3335 24.1799 96.4935 23.6999L98.5735 17.9999H100.394Z" fill="white"/>
</svg>
