<svg width="27" height="23" viewBox="0 0 27 23" fill="none" xmlns="http://www.w3.org/2000/svg">
<path fill-rule="evenodd" clip-rule="evenodd" d="M22.895 21.4918L22.8959 21.4896L22.9196 21.4322L27 1.48544V1.42065C27 0.923668 26.8106 0.489801 26.3985 0.229555C26.0378 0.00176037 25.6231 -0.0144625 25.3323 0.00693747C25.0248 0.02957 24.7348 0.103999 24.534 0.165955C24.4307 0.197828 24.3443 0.22854 24.2825 0.251769C24.2515 0.263427 24.2263 0.27332 24.208 0.28069L24.19 0.288022L1.43965 8.94128L1.43339 8.94346C1.4211 8.9478 1.40485 8.95367 1.38523 8.96108C1.3461 8.97585 1.29285 8.99698 1.23028 9.02447C1.10744 9.07845 0.937712 9.16176 0.765582 9.27605C0.473235 9.47016 -0.0834403 9.92971 0.0105587 10.6583C0.088418 11.2617 0.517446 11.645 0.806685 11.8434C0.961734 11.9498 1.11007 12.0265 1.21869 12.0766C1.27372 12.102 1.32047 12.1215 1.35529 12.1352C1.37275 12.1421 1.38734 12.1476 1.39863 12.1518L1.41309 12.157L1.42233 12.1604L5.40266 13.4596C5.38923 13.7018 5.414 13.9486 5.48023 14.1922L7.47401 21.5255C7.71042 22.395 8.52169 23.0007 9.44909 23C10.2804 22.9994 11.0176 22.5118 11.3308 21.7843L14.4437 18.5572L19.7898 22.5313L19.8658 22.5634C20.3515 22.7689 20.8053 22.834 21.2202 22.7791C21.6345 22.7242 21.9638 22.5558 22.2111 22.3639C22.4544 22.1751 22.6213 21.962 22.7261 21.8016C22.7794 21.7201 22.8192 21.6485 22.8467 21.5946C22.8605 21.5675 22.8715 21.5446 22.8796 21.5267L22.8899 21.5038L22.8935 21.4953L22.895 21.4918ZM7.45376 13.6878C7.40845 13.5211 7.47959 13.3452 7.62965 13.2528L21.1304 4.93991C21.1304 4.93991 21.9245 4.47249 21.8961 4.93991C21.8961 4.93991 22.0378 5.02246 21.6123 5.40734C21.2087 5.77288 11.99 14.4026 11.0572 15.2758C11.0033 15.3262 10.9712 15.384 10.9522 15.4542L9.44755 21.021L7.45376 13.6878Z" fill="black"/>
</svg>
