<svg width="34" height="20" viewBox="0 0 34 20" fill="none" xmlns="http://www.w3.org/2000/svg">
<path d="M32.6325 20H28.9123C27.5039 20 27.0787 18.8686 24.5542 16.3691C22.3485 14.2643 21.4184 14.0012 20.8604 14.0012C20.0898 14.0012 19.8771 14.2116 19.8771 15.2641V18.5792C19.8771 19.4738 19.5849 20 17.2198 20C14.9248 19.8473 12.6993 19.1571 10.7265 17.986C8.75375 16.815 7.09016 15.1967 5.87276 13.2644C2.98265 9.70276 0.971751 5.52256 0 1.05626C0 0.503731 0.212531 0.00379273 1.27554 0.00379273H4.99582C5.95248 0.00379273 6.298 0.424799 6.66997 1.39836C8.47693 6.66045 11.5596 11.2385 12.8085 11.2385C13.2869 11.2385 13.4994 11.0281 13.4994 9.84411V4.424C13.3399 1.95088 12.0113 1.7403 12.0113 0.84583C12.0288 0.609838 12.1385 0.389887 12.3171 0.232672C12.4957 0.0754557 12.7292 -0.00664683 12.968 0.00379273H18.8143C19.6115 0.00379273 19.8771 0.398454 19.8771 1.34564V8.66013C19.8771 9.44945 20.2226 9.71246 20.4618 9.71246C20.9401 9.71246 21.3121 9.44945 22.189 8.58119C24.0735 6.30587 25.6132 3.77096 26.7598 1.05626C26.8768 0.729608 27.0986 0.44988 27.3914 0.259826C27.6841 0.0697726 28.0316 -0.0201529 28.3809 0.00379273H32.1011C33.2172 0.00379273 33.4564 0.556319 33.2172 1.34564C31.8635 4.34712 30.1887 7.19623 28.2214 9.84411C27.8228 10.4492 27.6634 10.7649 28.2214 11.4753C28.5934 12.0278 29.8956 13.1065 30.7725 14.1327C32.048 15.3924 33.1071 16.8499 33.9081 18.4477C34.227 19.4738 33.6956 20 32.6325 20Z" fill="black"/>
</svg>
