<svg width="30" height="22" viewBox="0 0 30 22" fill="none" xmlns="http://www.w3.org/2000/svg">
<path fill-rule="evenodd" clip-rule="evenodd" d="M7.5048 0.974265C12.4102 0.606234 17.3381 0.606235 22.2435 0.974265L25.5386 1.22149C27.374 1.35919 28.8755 2.67833 29.1789 4.41968C29.938 8.77666 29.938 13.2242 29.1789 17.5812C28.8755 19.3226 27.374 20.6417 25.5386 20.7794L22.2435 21.0266C17.3381 21.3947 12.4102 21.3947 7.5048 21.0266L4.20965 20.7794C2.37425 20.6417 0.872744 19.3226 0.569346 17.5812C-0.189782 13.2242 -0.189782 8.77666 0.569346 4.41968C0.872744 2.67833 2.37425 1.35919 4.20965 1.22149L7.5048 0.974265ZM11.9329 14.484V7.51692C11.9329 7.18807 12.307 6.98494 12.6011 7.15414L18.6553 10.6377C18.9409 10.802 18.9409 11.1989 18.6553 11.3632L12.6011 14.8468C12.307 15.016 11.9329 14.8128 11.9329 14.484Z" fill="black"/>
</svg>
